<svg xmlns="http://www.w3.org/2000/svg" viewBox="0 0 600 200"><defs><style>.cls-2{fill:#1a1a1a}</style></defs><g id="Camada_1"><path d="m540.48 114.81-4.21-85.55s-1.1-5.99 4.3-5.94l38.14.36s5.29-.24 4.84 6.51c-.45 6.75-2.36 34.91-2.36 34.91s-2.8 36.6-40.72 49.7Zm38.45-12.87s-12.56 19.39-37.9 25.52l.63 15.55s.57 5.13 5.85 5.24l23.68.22s5.14.38 5.46-5.93c.32-6.31 2.27-40.61 2.27-40.61Z" style="fill:#ff5925;fill-rule:evenodd"/><path d="M92.51 49.43H16.42v15.35h29.65v83.7h16.92v-83.7h29.52V49.43z" class="cls-2"/><path d="M127.67 81.05c-4.99-3.02-11.02-4.46-17.84-4.46s-12.99 1.57-18.24 4.46c-5.25 3.02-9.45 7.08-12.33 12.46-3.02 5.38-4.33 11.68-4.33 19.02v1.71c0 7.22 1.57 13.64 4.46 19.02 3.02 5.38 7.08 9.71 12.46 12.59 5.38 2.89 11.54 4.46 18.37 4.46 6.3 0 11.54-1.05 15.74-3.02 4.2-2.1 7.48-4.46 9.97-7.35 2.49-2.89 4.33-5.64 5.64-8.13l-13.51-6.95c-1.31 3.02-3.28 5.64-5.77 7.87-2.49 2.23-6.43 3.54-11.68 3.54s-9.84-1.71-13.64-4.99c-3.67-3.28-5.64-7.74-5.77-13.12h52.48v-5.77c0-7.08-1.44-13.51-4.33-18.89-2.49-5.38-6.43-9.45-11.68-12.46Zm-36.08 24.79c.79-4.59 2.76-8.4 5.77-11.02s7.22-4.07 12.46-4.07 9.05 1.31 12.33 4.07c3.15 2.76 4.99 6.43 5.25 11.02H91.58ZM240.1 80.13a25.31 25.31 0 0 0-11.81-2.89c-5.64 0-9.84 1.05-12.86 3.02-3.02 2.1-5.38 4.72-6.95 7.87h-2.36c-1.71-3.15-3.94-5.77-6.95-7.87s-7.22-3.02-12.33-3.02-8.66.92-11.54 2.76-4.99 3.94-6.17 6.3h-2.36v-7.74h-16.01v69.92h16.27v-41.46c0-5.12 1.18-9.18 3.67-11.94 2.36-2.76 5.77-4.2 10.23-4.2 3.8 0 6.95 1.05 9.05 3.15 2.23 2.1 3.28 5.25 3.28 9.31v45.13h16.01v-41.46c0-5.12 1.18-9.18 3.67-11.94s5.9-4.2 10.1-4.2c3.8 0 6.95 1.05 9.05 3.15 2.23 2.1 3.28 5.25 3.28 9.31v45.13h16.27v-46.31c0-5.51-1.05-10.1-3.15-13.64-1.97-3.8-4.85-6.43-8.4-8.4Zm76.09.52c-4.85-2.76-10.1-4.2-15.74-4.2-6.56 0-11.68 1.05-15.22 3.41-3.54 2.36-6.17 4.85-7.74 7.74h-2.36v-9.18h-16.01v98.26h16.27v-37h2.36c1.05 1.71 2.49 3.41 4.33 4.99 1.84 1.71 4.33 3.02 7.22 4.07 3.02 1.05 6.69 1.57 11.02 1.57 5.64 0 11.02-1.44 15.87-4.2 4.85-2.76 8.66-6.95 11.68-12.33 3.02-5.38 4.33-11.81 4.33-19.42V112c0-7.61-1.44-14.04-4.33-19.42-2.89-4.99-6.82-9.05-11.68-11.94Zm-.13 33.59c0 7.08-1.84 12.46-5.64 16.4-3.8 3.94-8.66 5.64-14.69 5.64s-10.76-1.84-14.69-5.64c-3.94-3.8-5.9-9.31-5.9-16.4v-1.44c0-7.08 1.97-12.59 5.9-16.4 3.94-3.67 8.79-5.64 14.69-5.64s10.76 1.84 14.56 5.64c3.8 3.8 5.77 9.18 5.77 16.4v1.44Zm23.75-64.81h16.27v99.05h-16.27zm172.51 39.09c-2.1-3.67-4.99-6.43-8.4-8.4a25.31 25.31 0 0 0-11.81-2.89c-5.64 0-9.84 1.05-12.86 3.02-3.02 2.1-5.38 4.72-6.95 7.87h-2.36c-1.71-3.15-3.94-5.77-7.08-7.87-3.02-2.1-7.22-3.02-12.33-3.02s-8.66.92-11.54 2.76c-2.89 1.84-4.99 3.94-6.17 6.3h-2.36v-7.74h-16.14v35.42c0 7.08-1.71 12.46-4.99 16.27s-7.87 5.64-13.64 5.64c-4.99 0-9.05-1.31-11.81-4.07-2.76-2.76-4.2-6.95-4.2-12.59V78.68h-16.14v41.85c0 5.77 1.05 11.02 3.41 15.35 2.36 4.33 5.51 7.74 9.71 10.23 4.2 2.49 8.92 3.67 14.3 3.67 6.43 0 11.41-1.18 14.69-3.54 3.28-2.36 5.51-4.85 6.69-7.35h2.36v9.71h16.4v-41.59c0-5.12 1.18-9.18 3.67-11.94 2.36-2.76 5.77-4.2 10.23-4.2 3.8 0 6.95 1.05 9.05 3.15 2.23 2.1 3.28 5.25 3.28 9.31v45.13h16.14V107c0-5.12 1.18-9.18 3.67-11.94s5.9-4.2 10.1-4.2c3.8 0 6.95 1.05 9.05 3.15 2.23 2.1 3.28 5.25 3.28 9.31v45.13h16.27v-46.31c-.39-5.38-1.44-10.1-3.54-13.64Z" class="cls-2"/></g></svg>